<svg xmlns="http://www.w3.org/2000/svg" viewBox="0 0 760 400">
  <rect width="760" height="400" fill="#fff"/>
  <g fill="#B22234">
    <rect width="760" height="31"/>
    <rect y="62" width="760" height="31"/>
    <rect y="123" width="760" height="31"/>
    <rect y="185" width="760" height="31"/>
    <rect y="246" width="760" height="31"/>
    <rect y="308" width="760" height="31"/>
    <rect y="369" width="760" height="31"/>
  </g>
  <g fill="#fff">
    <rect y="31" width="760" height="31"/>
    <rect y="92" width="760" height="31"/>
    <rect y="154" width="760" height="31"/>
    <rect y="215" width="760" height="31"/>
    <rect y="277" width="760" height="31"/>
    <rect y="338" width="760" height="31"/>
  </g>
  <rect width="304" height="217" fill="#3C3B6E"/>
  <g fill="#fff">
    <g id="s18">
      <g id="s9">
        <g id="s5">
          <g id="s4">
            <path id="s" d="m63,59 0,-6.5 -4.5,-1.5 4.5,-1.5 0,-6.5 6,4.5 6,-4.5 0,6.5 4.5,1.5 -4.5,1.5 0,6.5 -6,-4.5z"/>
            <use y="24" href="#s"/>
            <use y="48" href="#s"/>
            <use y="72" href="#s"/>
          </g>
          <use y="96" href="#s"/>
        </g>
        <use x="63" href="#s5"/>
      </g>
      <use x="126" href="#s9"/>
    </g>
    <use y="24" href="#s18"/>
    <use y="48" href="#s18"/>
    <use y="72" href="#s18"/>
  </g>
</svg>